<?xml version="1.0" encoding="UTF-8" standalone="no"?><!DOCTYPE svg PUBLIC "-//W3C//DTD SVG 1.1//EN" "http://www.w3.org/Graphics/SVG/1.1/DTD/svg11.dtd"><svg width="100%" height="100%" viewBox="0 0 16 15" version="1.1" xmlns="http://www.w3.org/2000/svg" xmlns:xlink="http://www.w3.org/1999/xlink" xml:space="preserve" xmlns:serif="http://www.serif.com/" style="fill-rule:evenodd;clip-rule:evenodd;stroke-linejoin:round;stroke-miterlimit:2;"><g transform="matrix(1,0,0,1,-447.393,-260.031)"><g transform="matrix(1.01647,0,0,1.01647,4.97715,-123.684)"><path d="M442.928,389.411C442.802,389.411 442.68,389.451 442.578,389.525L439.127,392.034C438.852,392.234 438.48,392.234 438.205,392.034C437.929,391.834 437.814,391.48 437.92,391.156L439.239,387.099C439.278,386.98 439.278,386.851 439.239,386.731C439.201,386.612 439.125,386.508 439.023,386.434L435.571,383.927C435.296,383.727 435.18,383.373 435.285,383.05C435.391,382.726 435.692,382.507 436.032,382.507L440.298,382.509C440.424,382.509 440.547,382.469 440.648,382.395C440.75,382.321 440.826,382.217 440.864,382.098L442.181,378.04C442.286,377.716 442.588,377.497 442.928,377.497L442.928,389.411Z" style="fill:rgb(246,187,6);"/></g><g transform="matrix(-1.01647,0,0,1.01647,905.424,-123.684)"><path d="M442.928,389.411C442.802,389.411 442.68,389.451 442.578,389.525L439.127,392.034C438.852,392.234 438.48,392.234 438.205,392.034C437.929,391.834 437.814,391.48 437.92,391.156L439.239,387.099C439.278,386.98 439.278,386.851 439.239,386.731C439.201,386.612 439.125,386.508 439.023,386.434L435.571,383.927C435.296,383.727 435.18,383.373 435.285,383.05C435.391,382.726 435.692,382.507 436.032,382.507L440.298,382.509C440.424,382.509 440.547,382.469 440.648,382.395C440.75,382.321 440.826,382.217 440.864,382.098L442.181,378.04C442.286,377.716 442.588,377.497 442.928,377.497L442.928,389.411Z" style="fill:rgb(204,204,204);"/></g></g></svg>