<svg width="341.00000000000006" height="341.00000000000006" xmlns="http://www.w3.org/2000/svg" clip-rule="evenodd" xml:space="preserve" version="1.1">

 <g>
  <title>Layer 1</title>
  <g stroke="null" id="svg_1">
   <path stroke="null" id="svg_2" fill="#fff" d="m153.92313,12.88676c2.33201,-7.50597 9.03919,-12.58152 16.58811,-12.58152c7.54796,0 14.22835,5.07554 16.55941,12.58152l29.24201,94.05385c0.8647,2.75395 2.55106,5.16741 4.79507,6.88089c2.26314,1.71448 4.99308,2.64212 7.76701,2.64212l94.73643,-0.04593c7.54892,0 14.22835,5.07654 16.56037,12.58551c2.33106,7.48501 -0.22,15.68995 -6.32552,20.32514l-76.6418,58.10166c-2.2641,1.71448 -3.9495,4.12694 -4.8142,6.88589c-0.86948,2.77892 -0.84557,5.77052 0,8.52947l29.30514,94.02389c2.33201,7.50997 -0.22287,15.71492 -6.32839,20.34911c-6.10647,4.63519 -14.38809,4.63519 -20.49361,0l-76.59397,-58.14759c-2.2641,-1.71848 -4.97012,-2.64611 -7.76796,-2.64611c-2.79784,0 -5.50864,0.92764 -7.77179,2.64611l-76.61788,58.14759c-6.10647,4.63519 -14.36418,4.63519 -20.4697,0c-6.1256,-4.63419 -8.68049,-12.83914 -6.32552,-20.34911l29.28219,-94.02389c0.8647,-2.75895 0.8647,-5.75055 0,-8.52947c-0.84557,-2.75795 -2.53097,-5.1714 -4.79507,-6.88589l-76.63797,-58.10166c-6.10552,-4.63519 -8.68049,-12.84014 -6.3523,-20.32514c2.35497,-7.50897 9.03919,-12.58551 16.58715,-12.58551l94.70869,0.04593c2.79784,0 5.52777,-0.92764 7.77179,-2.64212c2.2641,-1.71348 3.9495,-4.12694 4.79412,-6.88089l29.23819,-94.05385z"/>
  </g>
 </g>
</svg>